# Blender v3.1.2 OBJ File: 'Gabungan.blend'
# www.blender.org
mtllib mickey_eyes2.mtl
o mickey_eyes2_Sphere.026
v 1.052910 3.493956 1.253499
v 1.061604 3.491640 1.253034
v 1.047601 3.473009 1.258564
v 1.056296 3.470693 1.258100
v 1.047498 3.475441 1.258056
v 1.047636 3.478113 1.257469
v 1.048038 3.480975 1.256813
v 1.048672 3.483904 1.256116
v 1.049509 3.486780 1.255409
v 1.050517 3.489480 1.254720
v 1.051665 3.491882 1.254080
v 1.054257 3.495330 1.253056
v 1.055619 3.496268 1.252705
v 1.056958 3.496691 1.252467
v 1.058224 3.496614 1.252344
v 1.059367 3.496049 1.252338
v 1.060336 3.495011 1.252453
v 1.061081 3.493513 1.252691
v 1.061707 3.489207 1.253543
v 1.061570 3.486535 1.254129
v 1.061168 3.483674 1.254786
v 1.060534 3.480744 1.255482
v 1.059697 3.477869 1.256189
v 1.058689 3.475169 1.256878
v 1.057541 3.472766 1.257519
v 1.054949 3.469318 1.258542
v 1.053587 3.468381 1.258893
v 1.052248 3.467957 1.259131
v 1.050981 3.468035 1.259255
v 1.049838 3.468599 1.259260
v 1.048869 3.469638 1.259145
v 1.048125 3.471136 1.258907
v 1.052898 3.493933 1.253392
v 1.061593 3.491617 1.252927
v 1.047590 3.472986 1.258457
v 1.056284 3.470670 1.257992
v 1.047487 3.475418 1.257948
v 1.047624 3.478090 1.257362
v 1.048026 3.480952 1.256706
v 1.048660 3.483881 1.256009
v 1.049497 3.486757 1.255302
v 1.050505 3.489457 1.254613
v 1.051653 3.491859 1.253972
v 1.054245 3.495307 1.252949
v 1.055607 3.496245 1.252598
v 1.056946 3.496668 1.252360
v 1.058213 3.496591 1.252236
v 1.059355 3.496026 1.252231
v 1.060325 3.494988 1.252346
v 1.061069 3.493490 1.252584
v 1.061696 3.489184 1.253435
v 1.061558 3.486512 1.254022
v 1.061157 3.483651 1.254678
v 1.060522 3.480721 1.255375
v 1.059685 3.477846 1.256082
v 1.058677 3.475146 1.256771
v 1.057529 3.472744 1.257411
v 1.054937 3.469295 1.258435
v 1.053575 3.468358 1.258786
v 1.052236 3.467935 1.259024
v 1.050970 3.468012 1.259147
v 1.049827 3.468576 1.259153
v 1.048858 3.469615 1.259038
v 1.048113 3.471113 1.258800
v 1.025424 3.498456 1.251400
v 1.034142 3.496608 1.252722
v 1.020222 3.477457 1.256362
v 1.028940 3.475610 1.257683
v 1.020106 3.479859 1.255726
v 1.020229 3.482510 1.255048
v 1.020615 3.485362 1.254343
v 1.021235 3.488293 1.253640
v 1.022057 3.491181 1.252968
v 1.023052 3.493904 1.252355
v 1.024188 3.496340 1.251831
v 1.026765 3.499885 1.251158
v 1.028123 3.500882 1.251029
v 1.029462 3.501369 1.251032
v 1.030730 3.501358 1.251157
v 1.031878 3.500857 1.251398
v 1.032854 3.499880 1.251746
v 1.033607 3.498435 1.252195
v 1.034258 3.494207 1.253358
v 1.034135 3.491556 1.254036
v 1.033749 3.488704 1.254740
v 1.033129 3.485773 1.255443
v 1.032307 3.482884 1.256115
v 1.031313 3.480161 1.256728
v 1.030176 3.477725 1.257252
v 1.027599 3.474181 1.257926
v 1.026241 3.473184 1.258054
v 1.024902 3.472697 1.258052
v 1.023634 3.472708 1.257926
v 1.022486 3.473208 1.257686
v 1.021510 3.474186 1.257337
v 1.020757 3.475631 1.256889
vt 1.000000 0.250000
vt 1.000000 0.375000
vt 0.000000 0.500000
vt 1.000000 0.000000
vt 0.875000 0.000000
vt 0.000000 0.125000
vt 0.000000 1.000000
vt 0.000000 0.875000
vt 0.000000 0.875000
vt 0.000000 0.750000
vt 0.000000 0.750000
vt 0.000000 0.625000
vt 0.000000 0.625000
vt 0.000000 0.500000
vt 0.000000 0.375000
vt 0.000000 0.375000
vt 0.000000 0.250000
vt 0.000000 0.250000
vt 0.000000 0.125000
vt 0.000000 0.000000
vt 0.000000 0.000000
vt 0.125000 0.000000
vt 0.125000 0.000000
vt 0.250000 0.000000
vt 0.250000 0.000000
vt 0.375000 0.000000
vt 0.375000 0.000000
vt 0.500000 0.000000
vt 0.500000 0.000000
vt 0.625000 0.000000
vt 0.625000 0.000000
vt 0.750000 0.000000
vt 0.750000 0.000000
vt 0.875000 0.000000
vt 1.000000 0.000000
vt 1.000000 0.125000
vt 1.000000 0.125000
vt 1.000000 0.250000
vt 1.000000 0.375000
vt 1.000000 0.500000
vt 1.000000 0.500000
vt 1.000000 0.625000
vt 1.000000 0.625000
vt 1.000000 0.750000
vt 1.000000 0.750000
vt 1.000000 0.875000
vt 1.000000 0.875000
vt 1.000000 1.000000
vt 1.000000 1.000000
vt 0.875000 1.000000
vt 0.875000 1.000000
vt 0.750000 1.000000
vt 0.750000 1.000000
vt 0.625000 1.000000
vt 0.625000 1.000000
vt 0.500000 1.000000
vt 0.500000 1.000000
vt 0.375000 1.000000
vt 0.375000 1.000000
vt 0.250000 1.000000
vt 0.250000 1.000000
vt 0.125000 1.000000
vt 0.125000 1.000000
vt 0.000000 1.000000
vt 0.625000 0.000000
vt 0.250000 0.000000
vt 0.500000 0.000000
vt 0.750000 0.000000
vt 0.125000 0.000000
vt 0.875000 0.000000
vt 1.000000 0.000000
vt 0.000000 0.000000
vt 1.000000 0.125000
vt 0.000000 0.125000
vt 1.000000 0.250000
vt 0.000000 0.250000
vt 1.000000 0.375000
vt 0.000000 0.375000
vt 1.000000 0.500000
vt 0.000000 0.500000
vt 1.000000 0.625000
vt 0.000000 0.625000
vt 1.000000 0.750000
vt 0.000000 0.750000
vt 1.000000 0.875000
vt 0.000000 0.875000
vt 1.000000 1.000000
vt 0.000000 1.000000
vt 0.875000 1.000000
vt 0.125000 1.000000
vt 0.750000 1.000000
vt 0.375000 1.000000
vt 0.625000 1.000000
vt 0.500000 1.000000
vt 0.250000 1.000000
vt 0.375000 0.000000
vn -0.1074 -0.2079 -0.9722
vn 0.1073 0.2080 0.9722
vn 0.9934 0.0180 -0.1129
vn 0.9930 -0.0712 -0.0938
vn 0.9849 -0.1555 -0.0766
vn 0.9726 -0.2248 -0.0592
vn 0.9563 -0.2891 -0.0429
vn 0.9343 -0.3556 -0.0259
vn 0.9012 -0.4332 -0.0089
vn 0.8588 -0.5121 0.0152
vn 0.7236 -0.6869 0.0676
vn 0.5827 -0.8060 0.1041
vn 0.3243 -0.9311 0.1667
vn -0.0388 -0.9766 0.2117
vn -0.4297 -0.8727 0.2318
vn -0.7260 -0.6528 0.2163
vn -0.8913 -0.4141 0.1847
vn -0.9581 -0.2393 0.1572
vn -0.9934 -0.0183 0.1133
vn -0.9928 0.0723 0.0951
vn -0.9851 0.1550 0.0748
vn -0.9726 0.2250 0.0590
vn -0.9563 0.2888 0.0452
vn -0.9341 0.3560 0.0271
vn -0.9012 0.4333 0.0062
vn -0.8591 0.5117 -0.0102
vn -0.7230 0.6875 -0.0683
vn -0.5826 0.8053 -0.1098
vn -0.3242 0.9324 -0.1599
vn 0.0387 0.9757 -0.2156
vn 0.4301 0.8728 -0.2309
vn 0.7251 0.6521 -0.2215
vn 0.8909 0.4132 -0.1887
vn 0.9582 0.2394 -0.1566
vn 0.0931 -0.2511 -0.9635
vn -0.1073 -0.2079 -0.9722
vn -0.1074 -0.2080 -0.9722
vn -0.1073 -0.2078 -0.9723
vn -0.1074 -0.2078 -0.9723
vn -0.1075 -0.2081 -0.9722
vn -0.1073 -0.2080 -0.9722
vn -0.1073 -0.2079 -0.9723
vn -0.1071 -0.2074 -0.9724
vn -0.1074 -0.2077 -0.9723
vn 0.1074 0.2079 0.9722
vn 0.1074 0.2081 0.9722
vn 0.1074 0.2080 0.9722
vn 0.1072 0.2076 0.9723
vn 0.1073 0.2076 0.9723
vn 0.1073 0.2079 0.9723
vn 0.1073 0.2078 0.9723
vn 0.1074 0.2079 0.9723
vn 0.1073 0.2079 0.9722
vn 0.1072 0.2079 0.9722
vn 0.1075 0.2079 0.9722
vn 0.9934 0.0186 -0.1132
vn 0.9930 -0.0719 -0.0936
vn 0.9850 -0.1553 -0.0746
vn 0.9725 -0.2250 -0.0604
vn 0.9564 -0.2887 -0.0438
vn 0.9342 -0.3557 -0.0271
vn 0.9017 -0.4323 -0.0062
vn 0.8593 -0.5113 0.0135
vn 0.7230 -0.6875 0.0683
vn 0.5830 -0.8050 0.1096
vn 0.3235 -0.9316 0.1658
vn -0.0389 -0.9754 0.2172
vn -0.4297 -0.8727 0.2317
vn -0.7253 -0.6525 0.2195
vn -0.8915 -0.4131 0.1861
vn -0.9582 -0.2397 0.1561
vn -0.9934 -0.0185 0.1130
vn -0.9930 0.0718 0.0937
vn -0.9849 0.1556 0.0761
vn -0.9727 0.2246 0.0588
vn -0.9562 0.2894 0.0447
vn -0.9342 0.3557 0.0275
vn -0.9016 0.4325 0.0093
vn -0.8590 0.5118 -0.0152
vn -0.7225 0.6881 -0.0665
vn -0.5819 0.8065 -0.1043
vn -0.3239 0.9318 -0.1638
vn 0.0389 0.9765 -0.2119
vn 0.4304 0.8724 -0.2318
vn 0.7250 0.6530 -0.2190
vn 0.8916 0.4124 -0.1870
vn 0.9581 0.2393 -0.1572
vn 0.0930 -0.2508 -0.9636
vn 0.0929 -0.2506 -0.9636
vn 0.0930 -0.2507 -0.9636
vn 0.0929 -0.2507 -0.9636
vn 0.0928 -0.2502 -0.9637
vn 0.0930 -0.2509 -0.9635
vn 0.0930 -0.2506 -0.9636
vn 0.0929 -0.2508 -0.9636
vn 0.0929 -0.2505 -0.9636
vn 0.0928 -0.2501 -0.9638
usemtl Pupil.001
s off
f 20/1/1 21/2/1 8/3/1
f 34/4/2 50/5/2 43/6/2
f 3/7/3 37/8/3 5/9/3
f 5/9/4 38/10/4 6/11/4
f 6/11/5 39/12/5 7/13/5
f 7/13/6 40/14/6 8/3/6
f 8/3/7 41/15/7 9/16/7
f 9/16/8 42/17/8 10/18/8
f 10/18/9 43/6/9 11/19/9
f 11/19/10 33/20/10 1/21/10
f 1/21/11 44/22/11 12/23/11
f 12/23/12 45/24/12 13/25/12
f 13/25/13 46/26/13 14/27/13
f 15/28/14 46/26/14 47/29/14
f 16/30/15 47/29/15 48/31/15
f 17/32/16 48/31/16 49/33/16
f 18/34/17 49/33/17 50/5/17
f 2/35/18 50/5/18 34/4/18
f 19/36/19 34/4/19 51/37/19
f 20/1/20 51/37/20 52/38/20
f 21/2/21 52/38/21 53/39/21
f 22/40/22 53/39/22 54/41/22
f 23/42/23 54/41/23 55/43/23
f 24/44/24 55/43/24 56/45/24
f 25/46/25 56/45/25 57/47/25
f 4/48/26 57/47/26 36/49/26
f 26/50/27 36/49/27 58/51/27
f 27/52/28 58/51/28 59/53/28
f 28/54/29 59/53/29 60/55/29
f 28/54/30 61/56/30 29/57/30
f 29/57/31 62/58/31 30/59/31
f 30/59/32 63/60/32 31/61/32
f 31/61/33 64/62/33 32/63/33
f 32/63/34 35/64/34 3/7/34
f 80/65/35 77/66/35 79/67/35
f 22/40/1 23/42/1 6/11/1
f 23/42/1 24/44/1 5/9/1
f 6/11/36 23/42/36 5/9/36
f 24/44/36 25/46/36 3/7/36
f 25/46/37 4/48/37 32/63/37
f 3/7/38 25/46/38 32/63/38
f 4/48/37 26/50/37 31/61/37
f 26/50/39 27/52/39 30/59/39
f 31/61/1 26/50/1 30/59/1
f 27/52/40 28/54/40 29/57/40
f 29/57/41 30/59/41 27/52/41
f 31/61/42 32/63/42 4/48/42
f 3/7/1 5/9/1 24/44/1
f 6/11/1 7/13/1 22/40/1
f 7/13/1 8/3/1 21/2/1
f 22/40/1 7/13/1 21/2/1
f 8/3/37 9/16/37 20/1/37
f 9/16/1 10/18/1 19/36/1
f 20/1/1 9/16/1 19/36/1
f 10/18/38 11/19/38 2/35/38
f 11/19/1 1/21/1 18/34/1
f 2/35/36 11/19/36 18/34/36
f 1/21/1 12/23/1 17/32/1
f 12/23/1 13/25/1 16/30/1
f 17/32/42 12/23/42 16/30/42
f 13/25/43 14/27/43 15/28/43
f 15/28/44 16/30/44 13/25/44
f 17/32/36 18/34/36 1/21/36
f 2/35/36 19/36/36 10/18/36
f 50/5/45 49/33/45 33/20/45
f 49/33/46 48/31/46 44/22/46
f 48/31/47 47/29/47 45/24/47
f 47/29/48 46/26/48 45/24/48
f 45/24/49 44/22/49 48/31/49
f 44/22/46 33/20/46 49/33/46
f 33/20/50 43/6/50 50/5/50
f 43/6/45 42/17/45 34/4/45
f 42/17/45 41/15/45 51/37/45
f 41/15/51 40/14/51 52/38/51
f 40/14/50 39/12/50 53/39/50
f 39/12/45 38/10/45 54/41/45
f 38/10/52 37/8/52 55/43/52
f 37/8/53 35/64/53 56/45/53
f 35/64/45 64/62/45 57/47/45
f 64/62/45 63/60/45 36/49/45
f 63/60/47 62/58/47 58/51/47
f 62/58/54 61/56/54 59/53/54
f 61/56/55 60/55/55 59/53/55
f 59/53/47 58/51/47 62/58/47
f 58/51/51 36/49/51 63/60/51
f 36/49/45 57/47/45 64/62/45
f 57/47/53 56/45/53 35/64/53
f 56/45/45 55/43/45 37/8/45
f 55/43/45 54/41/45 38/10/45
f 54/41/47 53/39/47 39/12/47
f 53/39/45 52/38/45 40/14/45
f 52/38/47 51/37/47 41/15/47
f 51/37/51 34/4/51 42/17/51
f 3/7/56 35/64/56 37/8/56
f 5/9/57 37/8/57 38/10/57
f 6/11/58 38/10/58 39/12/58
f 7/13/59 39/12/59 40/14/59
f 8/3/60 40/14/60 41/15/60
f 9/16/61 41/15/61 42/17/61
f 10/18/62 42/17/62 43/6/62
f 11/19/63 43/6/63 33/20/63
f 1/21/64 33/20/64 44/22/64
f 12/23/65 44/22/65 45/24/65
f 13/25/66 45/24/66 46/26/66
f 15/28/67 14/27/67 46/26/67
f 16/30/68 15/28/68 47/29/68
f 17/32/69 16/30/69 48/31/69
f 18/34/70 17/32/70 49/33/70
f 2/35/71 18/34/71 50/5/71
f 19/36/72 2/35/72 34/4/72
f 20/1/73 19/36/73 51/37/73
f 21/2/74 20/1/74 52/38/74
f 22/40/75 21/2/75 53/39/75
f 23/42/76 22/40/76 54/41/76
f 24/44/77 23/42/77 55/43/77
f 25/46/78 24/44/78 56/45/78
f 4/48/79 25/46/79 57/47/79
f 26/50/80 4/48/80 36/49/80
f 27/52/81 26/50/81 58/51/81
f 28/54/82 27/52/82 59/53/82
f 28/54/83 60/55/83 61/56/83
f 29/57/84 61/56/84 62/58/84
f 30/59/85 62/58/85 63/60/85
f 31/61/86 63/60/86 64/62/86
f 32/63/87 64/62/87 35/64/87
f 80/65/88 81/68/88 76/69/88
f 81/68/89 82/70/89 76/69/89
f 82/70/90 66/71/90 65/72/90
f 66/71/90 83/73/90 75/74/90
f 83/73/90 84/75/90 74/76/90
f 84/75/90 85/77/90 73/78/90
f 85/77/90 86/79/90 72/80/90
f 86/79/91 87/81/91 71/82/91
f 87/81/90 88/83/90 70/84/90
f 88/83/90 89/85/90 69/86/90
f 89/85/90 68/87/90 67/88/90
f 68/87/91 90/89/91 96/90/91
f 90/89/89 91/91/89 94/92/89
f 91/91/92 92/93/92 93/94/92
f 94/92/93 91/91/93 93/94/93
f 94/92/90 95/95/90 90/89/90
f 95/95/91 96/90/91 90/89/91
f 96/90/91 67/88/91 68/87/91
f 67/88/90 69/86/90 89/85/90
f 69/86/94 70/84/94 88/83/94
f 70/84/95 71/82/95 87/81/95
f 71/82/91 72/80/91 86/79/91
f 72/80/95 73/78/95 85/77/95
f 73/78/90 74/76/90 84/75/90
f 74/76/91 75/74/91 83/73/91
f 75/74/90 65/72/90 66/71/90
f 65/72/90 76/69/90 82/70/90
f 76/69/96 77/66/96 80/65/96
f 77/66/97 78/96/97 79/67/97
