# Blender v3.1.2 OBJ File: 'Gabungan.blend'
# www.blender.org
mtllib mickey_eyes3.mtl
o mickey_eyes3_Sphere.033
v 1.059081 3.494053 1.252962
v 1.059497 3.493925 1.252958
v 1.059880 3.493679 1.252989
v 1.060213 3.493327 1.253052
v 1.060486 3.492880 1.253145
v 1.060686 3.492358 1.253266
v 1.060807 3.491779 1.253408
v 1.060844 3.491166 1.253567
v 1.060795 3.490542 1.253736
v 1.060663 3.489933 1.253910
v 1.060452 3.489359 1.254081
v 1.060170 3.488845 1.254243
v 1.059829 3.488409 1.254389
v 1.059441 3.488069 1.254514
v 1.059021 3.487837 1.254614
v 1.058586 3.487723 1.254683
v 1.058152 3.487730 1.254721
v 1.057736 3.487859 1.254724
v 1.057353 3.488104 1.254694
v 1.057019 3.488457 1.254631
v 1.056747 3.488903 1.254537
v 1.056546 3.489426 1.254417
v 1.056425 3.490005 1.254274
v 1.056389 3.490618 1.254115
v 1.056437 3.491241 1.253946
v 1.056570 3.491851 1.253772
v 1.056781 3.492424 1.253601
v 1.057063 3.492939 1.253439
v 1.057404 3.493374 1.253293
v 1.057792 3.493715 1.253168
v 1.058212 3.493947 1.253069
v 1.058647 3.494061 1.252999
v 1.031785 3.498823 1.252141
v 1.032194 3.498680 1.252190
v 1.032560 3.498422 1.252270
v 1.032871 3.498059 1.252379
v 1.033113 3.497605 1.252511
v 1.033278 3.497078 1.252662
v 1.033360 3.496498 1.252826
v 1.033354 3.495887 1.252997
v 1.033262 3.495269 1.253168
v 1.033087 3.494667 1.253332
v 1.032836 3.494105 1.253484
v 1.032518 3.493604 1.253617
v 1.032145 3.493183 1.253726
v 1.031732 3.492859 1.253808
v 1.031296 3.492643 1.253858
v 1.030851 3.492546 1.253875
v 1.030416 3.492569 1.253859
v 1.030008 3.492712 1.253810
v 1.029642 3.492970 1.253729
v 1.029331 3.493333 1.253621
v 1.029089 3.493786 1.253488
v 1.028924 3.494313 1.253337
v 1.028842 3.494894 1.253173
v 1.028848 3.495504 1.253002
v 1.028940 3.496123 1.252831
v 1.029115 3.496725 1.252667
v 1.029366 3.497287 1.252515
v 1.029684 3.497788 1.252383
v 1.030057 3.498209 1.252273
v 1.030469 3.498533 1.252192
v 1.030906 3.498748 1.252142
v 1.031351 3.498846 1.252124
vt 0.777785 0.915735
vt 0.691342 0.961940
vt 0.402455 0.990393
vt 0.777785 0.915735
vt 0.691342 0.961940
vt 0.402455 0.990393
vt 0.597545 0.990393
vt 0.500000 1.000000
vt 0.308658 0.961940
vt 0.222215 0.915735
vt 0.853553 0.853553
vt 0.146447 0.853553
vt 0.915735 0.777785
vt 0.084265 0.777785
vt 0.961940 0.691342
vt 0.038060 0.691342
vt 0.990393 0.597545
vt 0.009607 0.597545
vt 1.000000 0.500000
vt 0.000000 0.500000
vt 0.990393 0.402455
vt 0.009607 0.402455
vt 0.961940 0.308658
vt 0.038060 0.308658
vt 0.915735 0.222215
vt 0.084265 0.222215
vt 0.853553 0.146447
vt 0.146447 0.146447
vt 0.777785 0.084265
vt 0.222215 0.084265
vt 0.691342 0.038060
vt 0.308658 0.038060
vt 0.597545 0.009607
vt 0.402455 0.009607
vt 0.500000 0.000000
vt 0.597545 0.990393
vt 0.500000 1.000000
vt 0.308658 0.961940
vt 0.222215 0.915735
vt 0.853553 0.853553
vt 0.146447 0.853553
vt 0.915735 0.777785
vt 0.084265 0.777785
vt 0.961940 0.691342
vt 0.038060 0.691342
vt 0.990393 0.597545
vt 0.009607 0.597545
vt 1.000000 0.500000
vt 0.000000 0.500000
vt 0.990393 0.402455
vt 0.009607 0.402455
vt 0.961940 0.308658
vt 0.038060 0.308658
vt 0.915735 0.222215
vt 0.084265 0.222215
vt 0.853553 0.146447
vt 0.146447 0.146447
vt 0.777785 0.084265
vt 0.222215 0.084265
vt 0.691342 0.038060
vt 0.308658 0.038060
vt 0.597545 0.009607
vt 0.402455 0.009607
vt 0.500000 0.000000
vn -0.0870 -0.2546 -0.9631
vn 0.0216 -0.2677 -0.9633
vn -0.0878 -0.2568 -0.9625
vn -0.0864 -0.2543 -0.9633
vn -0.0872 -0.2548 -0.9631
vn -0.0872 -0.2549 -0.9630
vn -0.0873 -0.2557 -0.9628
vn -0.0871 -0.2549 -0.9630
vn -0.0872 -0.2552 -0.9629
vn -0.0872 -0.2554 -0.9629
vn -0.0871 -0.2551 -0.9630
vn -0.0870 -0.2550 -0.9630
vn -0.0871 -0.2552 -0.9629
vn -0.0871 -0.2550 -0.9630
vn -0.0871 -0.2544 -0.9632
vn -0.0873 -0.2553 -0.9629
vn -0.0873 -0.2556 -0.9628
vn -0.0869 -0.2553 -0.9629
vn -0.0874 -0.2561 -0.9627
vn -0.0870 -0.2545 -0.9631
vn -0.0872 -0.2550 -0.9630
vn -0.0872 -0.2552 -0.9630
vn -0.0871 -0.2547 -0.9631
vn 0.0214 -0.2689 -0.9629
vn 0.0216 -0.2691 -0.9629
vn 0.0218 -0.2695 -0.9627
vn 0.0218 -0.2696 -0.9627
vn 0.0217 -0.2692 -0.9628
vn 0.0218 -0.2691 -0.9629
vn 0.0217 -0.2691 -0.9629
vn 0.0218 -0.2690 -0.9629
vn 0.0218 -0.2700 -0.9626
vn 0.0217 -0.2697 -0.9627
vn 0.0218 -0.2694 -0.9628
vn 0.0218 -0.2692 -0.9628
vn 0.0218 -0.2693 -0.9628
vn 0.0218 -0.2688 -0.9629
vn 0.0219 -0.2699 -0.9626
vn 0.0217 -0.2679 -0.9632
vn 0.0218 -0.2695 -0.9628
usemtl Material.014
s off
f 30/1/1 31/2/1 2/3/1
f 62/4/2 63/5/2 34/6/2
f 32/7/3 1/8/3 31/2/3
f 1/8/4 2/3/4 31/2/4
f 2/3/5 3/9/5 30/1/5
f 3/9/6 4/10/6 29/11/6
f 30/1/7 3/9/7 29/11/7
f 4/10/8 5/12/8 28/13/8
f 5/12/9 6/14/9 27/15/9
f 28/13/10 5/12/10 27/15/10
f 6/14/11 7/16/11 26/17/11
f 7/16/9 8/18/9 25/19/9
f 26/17/12 7/16/12 25/19/12
f 8/18/8 9/20/8 24/21/8
f 9/20/13 10/22/13 23/23/13
f 24/21/14 9/20/14 23/23/14
f 10/22/14 11/24/14 22/25/14
f 11/24/11 12/26/11 21/27/11
f 22/25/9 11/24/9 21/27/9
f 12/26/15 13/28/15 20/29/15
f 13/28/16 14/30/16 19/31/16
f 20/29/17 13/28/17 19/31/17
f 14/30/18 15/32/18 18/33/18
f 15/32/19 16/34/19 17/35/19
f 18/33/20 15/32/20 17/35/20
f 18/33/15 19/31/15 14/30/15
f 20/29/9 21/27/9 12/26/9
f 22/25/21 23/23/21 10/22/21
f 24/21/22 25/19/22 8/18/22
f 26/17/14 27/15/14 6/14/14
f 28/13/23 29/11/23 4/10/23
f 64/36/24 33/37/24 63/5/24
f 33/37/25 34/6/25 63/5/25
f 34/6/26 35/38/26 62/4/26
f 35/38/27 36/39/27 61/40/27
f 62/4/28 35/38/28 61/40/28
f 36/39/29 37/41/29 60/42/29
f 37/41/27 38/43/27 59/44/27
f 60/42/30 37/41/30 59/44/30
f 38/43/31 39/45/31 58/46/31
f 39/45/32 40/47/32 57/48/32
f 58/46/30 39/45/30 57/48/30
f 40/47/28 41/49/28 56/50/28
f 41/49/30 42/51/30 55/52/30
f 56/50/33 41/49/33 55/52/33
f 42/51/34 43/53/34 54/54/34
f 43/53/29 44/55/29 53/56/29
f 54/54/35 43/53/35 53/56/35
f 44/55/36 45/57/36 52/58/36
f 45/57/27 46/59/27 51/60/27
f 52/58/37 45/57/37 51/60/37
f 46/59/38 47/61/38 50/62/38
f 47/61/39 48/63/39 49/64/39
f 50/62/34 47/61/34 49/64/34
f 50/62/40 51/60/40 46/59/40
f 52/58/36 53/56/36 44/55/36
f 54/54/28 55/52/28 42/51/28
f 56/50/35 57/48/35 40/47/35
f 58/46/35 59/44/35 38/43/35
f 60/42/33 61/40/33 36/39/33
